<?xml version="1.0" encoding="UTF-8" standalone="no"?>
<!DOCTYPE svg PUBLIC "-//W3C//DTD SVG 1.1//EN"
 "http://www.w3.org/Graphics/SVG/1.1/DTD/svg11.dtd">
<!-- Generated by graphviz version 2.43.0 (0)
 -->
<!-- Title: readme_outputs Pages: 1 -->
<svg width="375pt" height="247pt"
 viewBox="2.88 2.88 372.16 244.16" xmlns="http://www.w3.org/2000/svg" xmlns:xlink="http://www.w3.org/1999/xlink">
<g id="graph0" class="graph" transform="scale(1 1) rotate(0) translate(11.52 235.52)">
<title>readme_outputs</title>
<!-- run&#45;&gt;json -->
<g id="edge1" class="edge">
<title>run&#45;&gt;json</title>
<path fill="none" stroke="#94a3b8" d="M74.25,-130.22C91.12,-143.9 115.82,-162.23 140,-174 148.83,-178.3 158.38,-182.13 167.99,-185.5"/>
<polygon fill="#94a3b8" stroke="#94a3b8" points="167.42,-187.71 174.3,-187.65 168.88,-183.4 167.42,-187.71"/>
</g>
<!-- run&#45;&gt;csv -->
<g id="edge2" class="edge">
<title>run&#45;&gt;csv</title>
<path fill="none" stroke="#94a3b8" d="M104.2,-120.27C124.93,-123.61 149.25,-127.54 171.79,-131.18"/>
<polygon fill="#94a3b8" stroke="#94a3b8" points="171.62,-133.46 178.4,-132.25 172.35,-128.97 171.62,-133.46"/>
</g>
<!-- run&#45;&gt;heatmap -->
<g id="edge3" class="edge">
<title>run&#45;&gt;heatmap</title>
<path fill="none" stroke="#94a3b8" d="M104.2,-103.73C113.31,-102.26 123.12,-100.68 133.16,-99.06"/>
<polygon fill="#94a3b8" stroke="#94a3b8" points="133.74,-101.27 139.8,-97.99 133.02,-96.78 133.74,-101.27"/>
</g>
<!-- run&#45;&gt;layout -->
<g id="edge4" class="edge">
<title>run&#45;&gt;layout</title>
<path fill="none" stroke="#94a3b8" d="M74.25,-93.78C91.12,-80.1 115.82,-61.77 140,-50 150.99,-44.65 163.08,-40.03 175.03,-36.12"/>
<polygon fill="#94a3b8" stroke="#94a3b8" points="175.75,-38.27 181.25,-34.13 174.37,-33.94 175.75,-38.27"/>
</g>
<!-- run -->
<g id="node1" class="node">
<title>run</title>
<path fill="#0f172a" stroke="#334155" stroke-width="1.3" d="M92,-130C92,-130 12,-130 12,-130 6,-130 0,-124 0,-118 0,-118 0,-106 0,-106 0,-100 6,-94 12,-94 12,-94 92,-94 92,-94 98,-94 104,-100 104,-106 104,-106 104,-118 104,-118 104,-124 98,-130 92,-130"/>
<text text-anchor="middle" x="52" y="-108.9" font-family="Liberation Sans" font-size="12.00" fill="#ffffff">Optimization run</text>
</g>
<!-- json -->
<g id="node2" class="node">
<title>json</title>
<path fill="#eff6ff" stroke="#60a5fa" stroke-width="1.3" d="M305.5,-224C305.5,-224 186.5,-224 186.5,-224 180.5,-224 174.5,-218 174.5,-212 174.5,-212 174.5,-198 174.5,-198 174.5,-192 180.5,-186 186.5,-186 186.5,-186 305.5,-186 305.5,-186 311.5,-186 317.5,-192 317.5,-198 317.5,-198 317.5,-212 317.5,-212 317.5,-218 311.5,-224 305.5,-224"/>
<text text-anchor="middle" x="246" y="-208.4" font-family="Liberation Sans" font-size="12.00">optimization_result.json</text>
<text text-anchor="middle" x="246" y="-195.4" font-family="Liberation Sans" font-size="12.00">Best coordinate</text>
</g>
<!-- csv -->
<g id="node3" class="node">
<title>csv</title>
<path fill="#fef3c7" stroke="#fbbf24" stroke-width="1.3" d="M301.5,-162C301.5,-162 190.5,-162 190.5,-162 184.5,-162 178.5,-156 178.5,-150 178.5,-150 178.5,-136 178.5,-136 178.5,-130 184.5,-124 190.5,-124 190.5,-124 301.5,-124 301.5,-124 307.5,-124 313.5,-130 313.5,-136 313.5,-136 313.5,-150 313.5,-150 313.5,-156 307.5,-162 301.5,-162"/>
<text text-anchor="middle" x="246" y="-146.4" font-family="Liberation Sans" font-size="12.00">candidate_metrics.csv</text>
<text text-anchor="middle" x="246" y="-133.4" font-family="Liberation Sans" font-size="12.00">Every AP scored</text>
</g>
<!-- heatmap -->
<g id="node4" class="node">
<title>heatmap</title>
<path fill="#fee2e2" stroke="#f87171" stroke-width="1.3" d="M340,-100C340,-100 152,-100 152,-100 146,-100 140,-94 140,-88 140,-88 140,-74 140,-74 140,-68 146,-62 152,-62 152,-62 340,-62 340,-62 346,-62 352,-68 352,-74 352,-74 352,-88 352,-88 352,-94 346,-100 340,-100"/>
<text text-anchor="middle" x="246" y="-84.4" font-family="Liberation Sans" font-size="12.00">worst_case_path_loss_heatmap.png</text>
<text text-anchor="middle" x="246" y="-71.4" font-family="Liberation Sans" font-size="12.00">Objective surface</text>
</g>
<!-- layout -->
<g id="node5" class="node">
<title>layout</title>
<path fill="#dcfce7" stroke="#4ade80" stroke-width="1.3" d="M298.5,-38C298.5,-38 193.5,-38 193.5,-38 187.5,-38 181.5,-32 181.5,-26 181.5,-26 181.5,-12 181.5,-12 181.5,-6 187.5,0 193.5,0 193.5,0 298.5,0 298.5,0 304.5,0 310.5,-6 310.5,-12 310.5,-12 310.5,-26 310.5,-26 310.5,-32 304.5,-38 298.5,-38"/>
<text text-anchor="middle" x="246" y="-22.4" font-family="Liberation Sans" font-size="12.00">topdown_layout.png</text>
<text text-anchor="middle" x="246" y="-9.4" font-family="Liberation Sans" font-size="12.00">Mesh, receivers, APs</text>
</g>
</g>
</svg>
