<?xml version="1.0" encoding="UTF-8" standalone="no"?>
<!DOCTYPE svg PUBLIC "-//W3C//DTD SVG 1.1//EN"
 "http://www.w3.org/Graphics/SVG/1.1/DTD/svg11.dtd">
<!-- Generated by graphviz version 2.43.0 (0)
 -->
<!-- Title: readme_backend_choice Pages: 1 -->
<svg width="640pt" height="128pt"
 viewBox="2.88 2.88 637.16 125.16" xmlns="http://www.w3.org/2000/svg" xmlns:xlink="http://www.w3.org/1999/xlink">
<g id="graph0" class="graph" transform="scale(1 1) rotate(0) translate(11.52 116.52)">
<title>readme_backend_choice</title>
<!-- auto&#45;&gt;importable -->
<g id="edge1" class="edge">
<title>auto&#45;&gt;importable</title>
<path fill="none" stroke="#64748b" stroke-width="1.2" d="M98.01,-52C108.56,-52 120.03,-52 131.54,-52"/>
<polygon fill="#64748b" stroke="#64748b" stroke-width="1.2" points="131.7,-54.45 138.7,-52 131.7,-49.55 131.7,-54.45"/>
</g>
<!-- importable&#45;&gt;sionna -->
<g id="edge2" class="edge">
<title>importable&#45;&gt;sionna</title>
<path fill="none" stroke="#64748b" stroke-width="1.2" d="M272.67,-61.83C296.68,-66.15 324.89,-71.23 349.25,-75.61"/>
<polygon fill="#64748b" stroke="#64748b" stroke-width="1.2" points="349.02,-78.06 356.34,-76.89 349.88,-73.24 349.02,-78.06"/>
<text text-anchor="middle" x="323" y="-75" font-family="Liberation Sans" font-size="10.00" fill="#475569">yes</text>
</g>
<!-- importable&#45;&gt;fallback -->
<g id="edge3" class="edge">
<title>importable&#45;&gt;fallback</title>
<path fill="none" stroke="#64748b" stroke-width="1.2" d="M270.53,-41.29C284.93,-38.47 300.54,-35.51 315,-33 324.35,-31.37 334.25,-29.76 343.96,-28.23"/>
<polygon fill="#64748b" stroke="#64748b" stroke-width="1.2" points="344.45,-30.63 350.99,-27.14 343.7,-25.79 344.45,-30.63"/>
<text text-anchor="middle" x="323" y="-36" font-family="Liberation Sans" font-size="10.00" fill="#475569">no</text>
</g>
<!-- sionna&#45;&gt;result -->
<g id="edge4" class="edge">
<title>sionna&#45;&gt;result</title>
<path fill="none" stroke="#64748b" stroke-width="1.2" d="M459.87,-74.58C472.34,-71.78 485.83,-68.76 498.76,-65.86"/>
<polygon fill="#64748b" stroke="#64748b" stroke-width="1.2" points="499.57,-68.18 505.87,-64.26 498.5,-63.4 499.57,-68.18"/>
</g>
<!-- fallback&#45;&gt;result -->
<g id="edge5" class="edge">
<title>fallback&#45;&gt;result</title>
<path fill="none" stroke="#64748b" stroke-width="1.2" d="M465.41,-31.29C476.35,-33.67 487.87,-36.18 498.96,-38.59"/>
<polygon fill="#64748b" stroke="#64748b" stroke-width="1.2" points="498.44,-40.99 505.8,-40.09 499.48,-36.2 498.44,-40.99"/>
</g>
<!-- auto -->
<g id="node1" class="node">
<title>auto</title>
<path fill="#f8fafc" stroke="#94a3b8" stroke-width="1.4" d="M86,-70C86,-70 12,-70 12,-70 6,-70 0,-64 0,-58 0,-58 0,-46 0,-46 0,-40 6,-34 12,-34 12,-34 86,-34 86,-34 92,-34 98,-40 98,-46 98,-46 98,-58 98,-58 98,-64 92,-70 86,-70"/>
<text text-anchor="middle" x="49" y="-48.9" font-family="Liberation Sans" font-size="12.00">&#45;&#45;backend auto</text>
</g>
<!-- importable -->
<g id="node2" class="node">
<title>importable</title>
<path fill="#e0f2fe" stroke="#38bdf8" stroke-width="1.4" d="M206,-81.2C206,-81.2 150,-56.8 150,-56.8 144.5,-54.4 144.5,-49.6 150,-47.2 150,-47.2 206,-22.8 206,-22.8 211.5,-20.4 222.5,-20.4 228,-22.8 228,-22.8 284,-47.2 284,-47.2 289.5,-49.6 289.5,-54.4 284,-56.8 284,-56.8 228,-81.2 228,-81.2 222.5,-83.6 211.5,-83.6 206,-81.2"/>
<text text-anchor="middle" x="217" y="-55.4" font-family="Liberation Sans" font-size="12.00">Sionna RT</text>
<text text-anchor="middle" x="217" y="-42.4" font-family="Liberation Sans" font-size="12.00">importable?</text>
</g>
<!-- sionna -->
<g id="node3" class="node">
<title>sionna</title>
<path fill="#dcfce7" stroke="#22c55e" stroke-width="1.4" d="M447.5,-105C447.5,-105 368.5,-105 368.5,-105 362.5,-105 356.5,-99 356.5,-93 356.5,-93 356.5,-79 356.5,-79 356.5,-73 362.5,-67 368.5,-67 368.5,-67 447.5,-67 447.5,-67 453.5,-67 459.5,-73 459.5,-79 459.5,-79 459.5,-93 459.5,-93 459.5,-99 453.5,-105 447.5,-105"/>
<text text-anchor="middle" x="408" y="-89.4" font-family="Liberation Sans" font-size="12.00">sionna</text>
<text text-anchor="middle" x="408" y="-76.4" font-family="Liberation Sans" font-size="12.00">GPU ray tracing</text>
</g>
<!-- fallback -->
<g id="node4" class="node">
<title>fallback</title>
<path fill="#ffedd5" stroke="#fb923c" stroke-width="1.4" d="M453,-38C453,-38 363,-38 363,-38 357,-38 351,-32 351,-26 351,-26 351,-12 351,-12 351,-6 357,0 363,0 363,0 453,0 453,0 459,0 465,-6 465,-12 465,-12 465,-26 465,-26 465,-32 459,-38 453,-38"/>
<text text-anchor="middle" x="408" y="-22.4" font-family="Liberation Sans" font-size="12.00">fallback</text>
<text text-anchor="middle" x="408" y="-9.4" font-family="Liberation Sans" font-size="12.00">CPU sanity check</text>
</g>
<!-- result -->
<g id="node5" class="node">
<title>result</title>
<path fill="#ede9fe" stroke="#8b5cf6" stroke-width="1.4" d="M605,-70C605,-70 518,-70 518,-70 512,-70 506,-64 506,-58 506,-58 506,-46 506,-46 506,-40 512,-34 518,-34 518,-34 605,-34 605,-34 611,-34 617,-40 617,-46 617,-46 617,-58 617,-58 617,-64 611,-70 605,-70"/>
<text text-anchor="middle" x="561.5" y="-48.9" font-family="Liberation Sans" font-size="12.00">Same output files</text>
</g>
</g>
</svg>
