<?xml version="1.0" encoding="UTF-8" standalone="no"?>
<!DOCTYPE svg PUBLIC "-//W3C//DTD SVG 1.1//EN"
 "http://www.w3.org/Graphics/SVG/1.1/DTD/svg11.dtd">
<!-- Generated by graphviz version 2.43.0 (0)
 -->
<!-- Title: readme_entry_points Pages: 1 -->
<svg width="795pt" height="127pt"
 viewBox="2.88 2.88 792.16 124.16" xmlns="http://www.w3.org/2000/svg" xmlns:xlink="http://www.w3.org/1999/xlink">
<g id="graph0" class="graph" transform="scale(1 1) rotate(0) translate(11.52 115.52)">
<title>readme_entry_points</title>
<!-- photos&#45;&gt;prep -->
<g id="edge1" class="edge">
<title>photos&#45;&gt;prep</title>
<path fill="none" stroke="#64748b" stroke-width="1.2" d="M90.37,-85C101,-85 112.52,-85 123.66,-85"/>
<polygon fill="#64748b" stroke="#64748b" stroke-width="1.2" points="123.92,-87.45 130.92,-85 123.92,-82.55 123.92,-87.45"/>
</g>
<!-- prep&#45;&gt;recon -->
<g id="edge2" class="edge">
<title>prep&#45;&gt;recon</title>
<path fill="none" stroke="#64748b" stroke-width="1.2" d="M234.16,-85C246.2,-85 258.96,-85 270.72,-85"/>
<polygon fill="#64748b" stroke="#64748b" stroke-width="1.2" points="270.89,-87.45 277.89,-85 270.89,-82.55 270.89,-87.45"/>
</g>
<!-- recon&#45;&gt;mesh -->
<g id="edge3" class="edge">
<title>recon&#45;&gt;mesh</title>
<path fill="none" stroke="#64748b" stroke-width="1.2" d="M355.39,-75.53C388.77,-67.18 437.55,-54.99 473.62,-45.97"/>
<polygon fill="#64748b" stroke="#64748b" stroke-width="1.2" points="474.46,-48.28 480.66,-44.21 473.28,-43.53 474.46,-48.28"/>
</g>
<!-- mesh&#45;&gt;optimize -->
<g id="edge4" class="edge">
<title>mesh&#45;&gt;optimize</title>
<path fill="none" stroke="#64748b" stroke-width="1.2" d="M564.12,-34C575.06,-34 586.86,-34 597.67,-34"/>
<polygon fill="#64748b" stroke="#64748b" stroke-width="1.2" points="597.98,-36.45 604.98,-34 597.98,-31.55 597.98,-36.45"/>
</g>
<!-- optimize&#45;&gt;outputs -->
<g id="edge5" class="edge">
<title>optimize&#45;&gt;outputs</title>
<path fill="none" stroke="#64748b" stroke-width="1.2" d="M669.16,-34C679.73,-34 691.65,-34 702.66,-34"/>
<polygon fill="#64748b" stroke="#64748b" stroke-width="1.2" points="702.73,-36.45 709.73,-34 702.73,-31.55 702.73,-36.45"/>
</g>
<!-- existing&#45;&gt;mesh -->
<g id="edge6" class="edge">
<title>existing&#45;&gt;mesh</title>
<path fill="none" stroke="#64748b" stroke-width="1.2" stroke-dasharray="5,2" d="M358.29,-21.2C391.51,-23.8 438.47,-27.49 473.49,-30.23"/>
<polygon fill="#64748b" stroke="#64748b" stroke-width="1.2" points="473.61,-32.7 480.78,-30.81 473.99,-27.82 473.61,-32.7"/>
<text text-anchor="middle" x="419.5" y="-32" font-family="Liberation Sans" font-size="10.00" fill="#475569">skip reconstruction</text>
</g>
<!-- photos -->
<g id="node1" class="node">
<title>photos</title>
<path fill="#ecfeff" stroke="#06b6d4" stroke-width="1.4" d="M78,-104C78,-104 12,-104 12,-104 6,-104 0,-98 0,-92 0,-92 0,-78 0,-78 0,-72 6,-66 12,-66 12,-66 78,-66 78,-66 84,-66 90,-72 90,-78 90,-78 90,-92 90,-92 90,-98 84,-104 78,-104"/>
<text text-anchor="middle" x="45" y="-88.4" font-family="Liberation Sans" font-size="12.00">Room photos</text>
<text text-anchor="middle" x="45" y="-75.4" font-family="Liberation Sans" font-size="12.00">/ frames</text>
</g>
<!-- prep -->
<g id="node2" class="node">
<title>prep</title>
<path fill="#ccfbf1" stroke="#14b8a6" stroke-width="1.4" d="M222,-103C222,-103 143,-103 143,-103 137,-103 131,-97 131,-91 131,-91 131,-79 131,-79 131,-73 137,-67 143,-67 143,-67 222,-67 222,-67 228,-67 234,-73 234,-79 234,-79 234,-91 234,-91 234,-97 228,-103 222,-103"/>
<text text-anchor="middle" x="182.5" y="-81.9" font-family="Liberation Sans" font-size="12.00">prepare&#45;images</text>
</g>
<!-- recon -->
<g id="node3" class="node">
<title>recon</title>
<path fill="#ede9fe" stroke="#8b5cf6" stroke-width="1.4" d="M343,-104C343,-104 290,-104 290,-104 284,-104 278,-98 278,-92 278,-92 278,-78 278,-78 278,-72 284,-66 290,-66 290,-66 343,-66 343,-66 349,-66 355,-72 355,-78 355,-78 355,-92 355,-92 355,-98 349,-104 343,-104"/>
<text text-anchor="middle" x="316.5" y="-88.4" font-family="Liberation Sans" font-size="12.00">reconstruct</text>
<text text-anchor="middle" x="316.5" y="-75.4" font-family="Liberation Sans" font-size="12.00">or pipeline</text>
</g>
<!-- mesh -->
<g id="node4" class="node">
<title>mesh</title>
<path fill="#eff6ff" stroke="#3b82f6" stroke-width="1.4" d="M552,-52C552,-52 493,-52 493,-52 487,-52 481,-46 481,-40 481,-40 481,-28 481,-28 481,-22 487,-16 493,-16 493,-16 552,-16 552,-16 558,-16 564,-22 564,-28 564,-28 564,-40 564,-40 564,-46 558,-52 552,-52"/>
<text text-anchor="middle" x="522.5" y="-30.9" font-family="Liberation Sans" font-size="12.00">Room mesh</text>
</g>
<!-- optimize -->
<g id="node5" class="node">
<title>optimize</title>
<path fill="#fef3c7" stroke="#f59e0b" stroke-width="1.4" d="M657,-52C657,-52 617,-52 617,-52 611,-52 605,-46 605,-40 605,-40 605,-28 605,-28 605,-22 611,-16 617,-16 617,-16 657,-16 657,-16 663,-16 669,-22 669,-28 669,-28 669,-40 669,-40 669,-46 663,-52 657,-52"/>
<text text-anchor="middle" x="637" y="-30.9" font-family="Liberation Sans" font-size="12.00">optimize</text>
</g>
<!-- outputs -->
<g id="node6" class="node">
<title>outputs</title>
<path fill="#dcfce7" stroke="#22c55e" stroke-width="1.4" d="M760,-53C760,-53 722,-53 722,-53 716,-53 710,-47 710,-41 710,-41 710,-27 710,-27 710,-21 716,-15 722,-15 722,-15 760,-15 760,-15 766,-15 772,-21 772,-27 772,-27 772,-41 772,-41 772,-47 766,-53 760,-53"/>
<text text-anchor="middle" x="741" y="-37.4" font-family="Liberation Sans" font-size="12.00">Best AP</text>
<text text-anchor="middle" x="741" y="-24.4" font-family="Liberation Sans" font-size="12.00">+ plots</text>
</g>
<!-- existing -->
<g id="node7" class="node">
<title>existing</title>
<path fill="#f8fafc" stroke="#94a3b8" stroke-width="1.4" d="M346,-36C346,-36 287,-36 287,-36 281,-36 275,-30 275,-24 275,-24 275,-12 275,-12 275,-6 281,0 287,0 287,0 346,0 346,0 352,0 358,-6 358,-12 358,-12 358,-24 358,-24 358,-30 352,-36 346,-36"/>
<text text-anchor="middle" x="316.5" y="-14.9" font-family="Liberation Sans" font-size="12.00">Existing .ply</text>
</g>
</g>
</svg>
