<?xml version="1.0" encoding="UTF-8" standalone="no"?>
<!DOCTYPE svg PUBLIC "-//W3C//DTD SVG 1.1//EN"
 "http://www.w3.org/Graphics/SVG/1.1/DTD/svg11.dtd">
<!-- Generated by graphviz version 2.43.0 (0)
 -->
<!-- Title: wifi_optimizer_flow Pages: 1 -->
<svg width="601pt" height="1209pt"
 viewBox="7.20 7.20 593.74 1202.24" xmlns="http://www.w3.org/2000/svg" xmlns:xlink="http://www.w3.org/1999/xlink">
<g id="graph0" class="graph" transform="scale(1 1) rotate(0) translate(18.72 1190.72)">
<title>wifi_optimizer_flow</title>
<polygon fill="#ffffff" stroke="transparent" points="-11.52,11.52 -11.52,-1183.52 575.02,-1183.52 575.02,11.52 -11.52,11.52"/>
<text text-anchor="middle" x="281.75" y="-1147.2" font-family="Liberation Sans" font-size="26.00">RTX WiFi Optimizer Flow</text>
<!-- start&#45;&gt;sources -->
<g id="edge1" class="edge">
<title>start&#45;&gt;sources</title>
<path fill="none" stroke="#475569" stroke-width="1.2" d="M362,-1098.6C362,-1090.35 362,-1080.05 362,-1069.76"/>
<polygon fill="#475569" stroke="#475569" stroke-width="1.2" points="364.52,-1069.49 362,-1062.29 359.48,-1069.49 364.52,-1069.49"/>
</g>
<!-- sources&#45;&gt;image_prep -->
<g id="edge2" class="edge">
<title>sources:photos&#45;&gt;image_prep</title>
<path fill="none" stroke="#475569" stroke-width="1.2" d="M206,-983C206,-970.49 206,-956.94 206,-944.43"/>
<polygon fill="#475569" stroke="#475569" stroke-width="1.2" points="208.52,-944.4 206,-937.2 203.48,-944.4 208.52,-944.4"/>
<text text-anchor="middle" x="228" y="-957.8" font-family="Liberation Sans" font-size="9.00" fill="#334155">photo path</text>
</g>
<!-- sources&#45;&gt;mesh_prep -->
<g id="edge5" class="edge">
<title>sources:mesh&#45;&gt;mesh_prep</title>
<path fill="none" stroke="#64748b" stroke-width="1.2" stroke-dasharray="5,2" d="M287,-983C287,-920.03 384.41,-988.25 421,-937 436.2,-915.71 429.4,-752.5 415,-733 405.36,-719.95 393.25,-709.15 379.73,-700.21"/>
<polygon fill="#64748b" stroke="#64748b" stroke-width="1.2" points="380.86,-697.94 373.43,-696.23 378.18,-702.2 380.86,-697.94"/>
<text text-anchor="middle" x="467.5" y="-832.8" font-family="Liberation Sans" font-size="9.00" fill="#334155">existing mesh path</text>
</g>
<!-- image_prep&#45;&gt;reconstruction -->
<g id="edge3" class="edge">
<title>image_prep&#45;&gt;reconstruction</title>
<path fill="none" stroke="#475569" stroke-width="1.2" d="M206,-857.92C206,-845.79 206,-832.27 206,-819.66"/>
<polygon fill="#475569" stroke="#475569" stroke-width="1.2" points="208.52,-819.57 206,-812.37 203.48,-819.57 208.52,-819.57"/>
</g>
<!-- reconstruction&#45;&gt;mesh_prep -->
<g id="edge4" class="edge">
<title>reconstruction&#45;&gt;mesh_prep</title>
<path fill="none" stroke="#475569" stroke-width="1.2" d="M206,-732.9C206,-723.43 206,-713.2 206,-703.42"/>
<polygon fill="#475569" stroke="#475569" stroke-width="1.2" points="208.52,-703.26 206,-696.06 203.48,-703.26 208.52,-703.26"/>
</g>
<!-- mesh_prep&#45;&gt;setup -->
<g id="edge6" class="edge">
<title>mesh_prep&#45;&gt;setup</title>
<path fill="none" stroke="#475569" stroke-width="1.2" d="M206,-616.9C206,-607.43 206,-597.2 206,-587.42"/>
<polygon fill="#475569" stroke="#475569" stroke-width="1.2" points="208.52,-587.26 206,-580.06 203.48,-587.26 208.52,-587.26"/>
</g>
<!-- setup&#45;&gt;evaluation -->
<g id="edge7" class="edge">
<title>setup&#45;&gt;evaluation</title>
<path fill="none" stroke="#475569" stroke-width="1.2" d="M206,-500.97C206,-489.01 206,-475.58 206,-462.72"/>
<polygon fill="#475569" stroke="#475569" stroke-width="1.2" points="208.52,-462.43 206,-455.23 203.48,-462.43 208.52,-462.43"/>
<text text-anchor="middle" x="251.5" y="-475.8" font-family="Liberation Sans" font-size="9.00" fill="#334155">auto / sionna / fallback</text>
</g>
<!-- evaluation&#45;&gt;selection -->
<g id="edge8" class="edge">
<title>evaluation&#45;&gt;selection</title>
<path fill="none" stroke="#475569" stroke-width="1.2" d="M206,-357.94C206,-348.25 206,-338.06 206,-328.42"/>
<polygon fill="#475569" stroke="#475569" stroke-width="1.2" points="208.52,-328.38 206,-321.18 203.48,-328.38 208.52,-328.38"/>
</g>
<!-- selection&#45;&gt;best -->
<g id="edge9" class="edge">
<title>selection&#45;&gt;best</title>
<path fill="none" stroke="#475569" stroke-width="1.2" d="M206,-241.86C206,-232.56 206,-222.48 206,-212.71"/>
<polygon fill="#475569" stroke="#475569" stroke-width="1.2" points="208.52,-212.51 206,-205.31 203.48,-212.51 208.52,-212.51"/>
</g>
<!-- best&#45;&gt;outputs -->
<g id="edge10" class="edge">
<title>best&#45;&gt;outputs</title>
<path fill="none" stroke="#475569" stroke-width="1.2" d="M206,-115.86C206,-106.24 206,-96.03 206,-86.32"/>
<polygon fill="#475569" stroke="#475569" stroke-width="1.2" points="208.52,-86.22 206,-79.02 203.48,-86.22 208.52,-86.22"/>
</g>
<!-- start -->
<g id="node1" class="node">
<title>start</title>
<ellipse fill="#ecfeff" stroke="#0891b2" stroke-width="1.5" cx="362" cy="-1117" rx="27" ry="18"/>
<text text-anchor="middle" x="362" y="-1113.9" font-family="Liberation Sans" font-size="12.00" fill="#0f172a">Start</text>
</g>
<!-- sources -->
<g id="node2" class="node">
<title>sources</title>
<polygon fill="#dbeafe" stroke="transparent" points="161,-1026.5 161,-1061.5 564,-1061.5 564,-1026.5 161,-1026.5"/>
<polygon fill="none" stroke="#93c5fd" points="161,-1026.5 161,-1061.5 564,-1061.5 564,-1026.5 161,-1026.5"/>
<text text-anchor="start" x="324.5" y="-1041.5" font-family="Liberation Sans" font-weight="bold" font-size="15.00" fill="#0f172a">1. Sources</text>
<polygon fill="#ffffff" stroke="transparent" points="161,-982.5 161,-1026.5 251,-1026.5 251,-982.5 161,-982.5"/>
<polygon fill="none" stroke="#93c5fd" points="161,-982.5 161,-1026.5 251,-1026.5 251,-982.5 161,-982.5"/>
<text text-anchor="start" x="170" y="-1007.9" font-family="Liberation Sans" font-size="12.00" fill="#0f172a">Room photos</text>
<text text-anchor="start" x="181" y="-994.9" font-family="Liberation Sans" font-size="12.00" fill="#0f172a">or frames</text>
<polygon fill="#eff6ff" stroke="transparent" points="251,-982.5 251,-1026.5 324,-1026.5 324,-982.5 251,-982.5"/>
<polygon fill="none" stroke="#93c5fd" points="251,-982.5 251,-1026.5 324,-1026.5 324,-982.5 251,-982.5"/>
<text text-anchor="start" x="266" y="-1007.9" font-family="Liberation Sans" font-size="12.00" fill="#0f172a">Existing</text>
<text text-anchor="start" x="260" y="-994.9" font-family="Liberation Sans" font-size="12.00" fill="#0f172a">PLY / OBJ</text>
<polygon fill="#ffffff" stroke="transparent" points="324,-982.5 324,-1026.5 413,-1026.5 413,-982.5 324,-982.5"/>
<polygon fill="none" stroke="#93c5fd" points="324,-982.5 324,-1026.5 413,-1026.5 413,-982.5 324,-982.5"/>
<text text-anchor="start" x="333" y="-1001.4" font-family="Liberation Sans" font-size="12.00" fill="#0f172a">Config JSON</text>
<polygon fill="#ffffff" stroke="transparent" points="413,-982.5 413,-1026.5 479,-1026.5 479,-982.5 413,-982.5"/>
<polygon fill="none" stroke="#93c5fd" points="413,-982.5 413,-1026.5 479,-1026.5 479,-982.5 413,-982.5"/>
<text text-anchor="start" x="422" y="-1001.4" font-family="Liberation Sans" font-size="12.00" fill="#0f172a">CLI flags</text>
<polygon fill="#ffffff" stroke="transparent" points="479,-982.5 479,-1026.5 564,-1026.5 564,-982.5 479,-982.5"/>
<polygon fill="none" stroke="#93c5fd" points="479,-982.5 479,-1026.5 564,-1026.5 564,-982.5 479,-982.5"/>
<text text-anchor="start" x="488" y="-1001.4" font-family="Liberation Sans" font-size="12.00" fill="#0f172a">Receiver list</text>
</g>
<!-- image_prep -->
<g id="node3" class="node">
<title>image_prep</title>
<polygon fill="#ccfbf1" stroke="transparent" points="6,-901.5 6,-936.5 407,-936.5 407,-901.5 6,-901.5"/>
<polygon fill="none" stroke="#5eead4" points="6,-901.5 6,-936.5 407,-936.5 407,-901.5 6,-901.5"/>
<text text-anchor="start" x="157" y="-916.5" font-family="Liberation Sans" font-weight="bold" font-size="15.00" fill="#0f172a">2. Image Prep</text>
<polygon fill="#ffffff" stroke="transparent" points="6,-857.5 6,-901.5 109,-901.5 109,-857.5 6,-857.5"/>
<polygon fill="none" stroke="#5eead4" points="6,-857.5 6,-901.5 109,-901.5 109,-857.5 6,-857.5"/>
<text text-anchor="start" x="15" y="-876.4" font-family="Liberation Sans" font-size="12.00" fill="#0f172a">prepare&#45;images</text>
<polygon fill="#ffffff" stroke="transparent" points="109,-857.5 109,-901.5 183,-901.5 183,-857.5 109,-857.5"/>
<polygon fill="none" stroke="#5eead4" points="109,-857.5 109,-901.5 183,-901.5 183,-857.5 109,-857.5"/>
<text text-anchor="start" x="118" y="-882.9" font-family="Liberation Sans" font-size="12.00" fill="#0f172a">RGB PNG</text>
<text text-anchor="start" x="119.5" y="-869.9" font-family="Liberation Sans" font-size="12.00" fill="#0f172a">sequence</text>
<polygon fill="#ffffff" stroke="transparent" points="183,-857.5 183,-901.5 258,-901.5 258,-857.5 183,-857.5"/>
<polygon fill="none" stroke="#5eead4" points="183,-857.5 183,-901.5 258,-901.5 258,-857.5 183,-857.5"/>
<text text-anchor="start" x="192" y="-882.9" font-family="Liberation Sans" font-size="12.00" fill="#0f172a">Numbered</text>
<text text-anchor="start" x="202" y="-869.9" font-family="Liberation Sans" font-size="12.00" fill="#0f172a">frames</text>
<polygon fill="#ffffff" stroke="transparent" points="258,-857.5 258,-901.5 322,-901.5 322,-857.5 258,-857.5"/>
<polygon fill="none" stroke="#5eead4" points="258,-857.5 258,-901.5 322,-901.5 322,-857.5 258,-857.5"/>
<text text-anchor="start" x="273" y="-882.9" font-family="Liberation Sans" font-size="12.00" fill="#0f172a">image</text>
<text text-anchor="start" x="267" y="-869.9" font-family="Liberation Sans" font-size="12.00" fill="#0f172a">manifest</text>
<polygon fill="#fff7ed" stroke="transparent" points="322,-857.5 322,-901.5 407,-901.5 407,-857.5 322,-857.5"/>
<polygon fill="none" stroke="#5eead4" points="322,-857.5 322,-901.5 407,-901.5 407,-857.5 322,-857.5"/>
<text text-anchor="start" x="331" y="-882.9" font-family="Liberation Sans" font-size="12.00" fill="#0f172a">Pose, depth,</text>
<text text-anchor="start" x="332" y="-869.9" font-family="Liberation Sans" font-size="12.00" fill="#0f172a">normal, flow</text>
</g>
<!-- reconstruction -->
<g id="node4" class="node">
<title>reconstruction</title>
<polygon fill="#ede9fe" stroke="transparent" points="13,-776.5 13,-811.5 400,-811.5 400,-776.5 13,-776.5"/>
<polygon fill="none" stroke="#c4b5fd" points="13,-776.5 13,-811.5 400,-811.5 400,-776.5 13,-776.5"/>
<text text-anchor="start" x="118.5" y="-791.5" font-family="Liberation Sans" font-weight="bold" font-size="15.00" fill="#0f172a">3. Visual Reconstruction</text>
<polygon fill="#ffffff" stroke="transparent" points="13,-732.5 13,-776.5 74,-776.5 74,-732.5 13,-732.5"/>
<polygon fill="none" stroke="#c4b5fd" points="13,-732.5 13,-776.5 74,-776.5 74,-732.5 13,-732.5"/>
<text text-anchor="start" x="22" y="-751.4" font-family="Liberation Sans" font-size="12.00" fill="#0f172a">pipeline</text>
<polygon fill="#ffffff" stroke="transparent" points="74,-732.5 74,-776.5 165,-776.5 165,-732.5 74,-732.5"/>
<polygon fill="none" stroke="#c4b5fd" points="74,-732.5 74,-776.5 165,-776.5 165,-732.5 74,-732.5"/>
<text text-anchor="start" x="83" y="-751.4" font-family="Liberation Sans" font-size="12.00" fill="#0f172a">or reconstruct</text>
<polygon fill="#ffffff" stroke="transparent" points="165,-732.5 165,-776.5 259,-776.5 259,-732.5 165,-732.5"/>
<polygon fill="none" stroke="#c4b5fd" points="165,-732.5 165,-776.5 259,-776.5 259,-732.5 165,-732.5"/>
<text text-anchor="start" x="174" y="-751.4" font-family="Liberation Sans" font-size="12.00" fill="#0f172a">exp_runner.py</text>
<polygon fill="#ffffff" stroke="transparent" points="259,-732.5 259,-776.5 317,-776.5 317,-732.5 259,-732.5"/>
<polygon fill="none" stroke="#c4b5fd" points="259,-732.5 259,-776.5 317,-776.5 317,-732.5 259,-732.5"/>
<text text-anchor="start" x="268" y="-757.9" font-family="Liberation Sans" font-size="12.00" fill="#0f172a">surface</text>
<text text-anchor="start" x="273" y="-744.9" font-family="Liberation Sans" font-size="12.00" fill="#0f172a">mesh</text>
<polygon fill="#faf5ff" stroke="transparent" points="317,-732.5 317,-776.5 400,-776.5 400,-732.5 317,-732.5"/>
<polygon fill="none" stroke="#c4b5fd" points="317,-732.5 317,-776.5 400,-776.5 400,-732.5 317,-732.5"/>
<text text-anchor="start" x="326" y="-751.4" font-family="Liberation Sans" font-size="12.00" fill="#0f172a">Room mesh</text>
</g>
<!-- mesh_prep -->
<g id="node5" class="node">
<title>mesh_prep</title>
<polygon fill="#ffe4e6" stroke="transparent" points="0,-660.5 0,-695.5 412,-695.5 412,-660.5 0,-660.5"/>
<polygon fill="none" stroke="#fda4af" points="0,-660.5 0,-695.5 412,-695.5 412,-660.5 0,-660.5"/>
<text text-anchor="start" x="159" y="-675.5" font-family="Liberation Sans" font-weight="bold" font-size="15.00" fill="#0f172a">4. Mesh Prep</text>
<polygon fill="#ffffff" stroke="transparent" points="0,-616.5 0,-660.5 64,-660.5 64,-616.5 0,-616.5"/>
<polygon fill="none" stroke="#fda4af" points="0,-616.5 0,-660.5 64,-660.5 64,-616.5 0,-616.5"/>
<text text-anchor="start" x="9" y="-635.4" font-family="Liberation Sans" font-size="12.00" fill="#0f172a">optimize</text>
<polygon fill="#ffffff" stroke="transparent" points="64,-616.5 64,-660.5 142,-660.5 142,-616.5 64,-616.5"/>
<polygon fill="none" stroke="#fda4af" points="64,-616.5 64,-660.5 142,-660.5 142,-616.5 64,-616.5"/>
<text text-anchor="start" x="73" y="-635.4" font-family="Liberation Sans" font-size="12.00" fill="#0f172a">Load mesh</text>
<polygon fill="#ffffff" stroke="transparent" points="142,-616.5 142,-660.5 224,-660.5 224,-616.5 142,-616.5"/>
<polygon fill="none" stroke="#fda4af" points="142,-616.5 142,-660.5 224,-660.5 224,-616.5 142,-616.5"/>
<text text-anchor="start" x="151" y="-635.4" font-family="Liberation Sans" font-size="12.00" fill="#0f172a">Clean faces</text>
<polygon fill="#ffffff" stroke="transparent" points="224,-616.5 224,-660.5 294,-660.5 294,-616.5 224,-616.5"/>
<polygon fill="none" stroke="#fda4af" points="224,-616.5 224,-660.5 294,-660.5 294,-616.5 224,-616.5"/>
<text text-anchor="start" x="233" y="-641.9" font-family="Liberation Sans" font-size="12.00" fill="#0f172a">Decimate</text>
<text text-anchor="start" x="234" y="-628.9" font-family="Liberation Sans" font-size="12.00" fill="#0f172a">if needed</text>
<polygon fill="#fff1f2" stroke="transparent" points="294,-616.5 294,-660.5 352,-660.5 352,-616.5 294,-616.5"/>
<polygon fill="none" stroke="#fda4af" points="294,-616.5 294,-660.5 352,-660.5 352,-616.5 294,-616.5"/>
<text text-anchor="start" x="303" y="-641.9" font-family="Liberation Sans" font-size="12.00" fill="#0f172a">Tri PLY</text>
<text text-anchor="start" x="306.5" y="-628.9" font-family="Liberation Sans" font-size="12.00" fill="#0f172a">cache</text>
<polygon fill="#ffffff" stroke="transparent" points="352,-616.5 352,-660.5 412,-660.5 412,-616.5 352,-616.5"/>
<polygon fill="none" stroke="#fda4af" points="352,-616.5 352,-660.5 412,-660.5 412,-616.5 352,-616.5"/>
<text text-anchor="start" x="361" y="-641.9" font-family="Liberation Sans" font-size="12.00" fill="#0f172a">Bounds</text>
<text text-anchor="start" x="364.5" y="-628.9" font-family="Liberation Sans" font-size="12.00" fill="#0f172a">+ stats</text>
</g>
<!-- setup -->
<g id="node6" class="node">
<title>setup</title>
<polygon fill="#fef3c7" stroke="transparent" points="19,-544.5 19,-579.5 394,-579.5 394,-544.5 19,-544.5"/>
<polygon fill="none" stroke="#fcd34d" points="19,-544.5 19,-579.5 394,-579.5 394,-544.5 19,-544.5"/>
<text text-anchor="start" x="128.5" y="-559.5" font-family="Liberation Sans" font-weight="bold" font-size="15.00" fill="#0f172a">5. Optimization Setup</text>
<polygon fill="#ffffff" stroke="transparent" points="19,-500.5 19,-544.5 107,-544.5 107,-500.5 19,-500.5"/>
<polygon fill="none" stroke="#fcd34d" points="19,-500.5 19,-544.5 107,-544.5 107,-500.5 19,-500.5"/>
<text text-anchor="start" x="28" y="-525.9" font-family="Liberation Sans" font-size="12.00" fill="#0f172a">Merge config</text>
<text text-anchor="start" x="45" y="-512.9" font-family="Liberation Sans" font-size="12.00" fill="#0f172a">+ flags</text>
<polygon fill="#ffffff" stroke="transparent" points="107,-500.5 107,-544.5 174,-544.5 174,-500.5 107,-500.5"/>
<polygon fill="none" stroke="#fcd34d" points="107,-500.5 107,-544.5 174,-544.5 174,-500.5 107,-500.5"/>
<text text-anchor="start" x="116" y="-525.9" font-family="Liberation Sans" font-size="12.00" fill="#0f172a">Receiver</text>
<text text-anchor="start" x="116" y="-512.9" font-family="Liberation Sans" font-size="12.00" fill="#0f172a">positions</text>
<polygon fill="#ffffff" stroke="transparent" points="174,-500.5 174,-544.5 254,-544.5 254,-500.5 174,-500.5"/>
<polygon fill="none" stroke="#fcd34d" points="174,-500.5 174,-544.5 254,-544.5 254,-500.5 174,-500.5"/>
<text text-anchor="start" x="185" y="-525.9" font-family="Liberation Sans" font-size="12.00" fill="#0f172a">Frequency</text>
<text text-anchor="start" x="183" y="-512.9" font-family="Liberation Sans" font-size="12.00" fill="#0f172a">+ TX power</text>
<polygon fill="#ffffff" stroke="transparent" points="254,-500.5 254,-544.5 328,-544.5 328,-500.5 254,-500.5"/>
<polygon fill="none" stroke="#fcd34d" points="254,-500.5 254,-544.5 328,-544.5 328,-500.5 254,-500.5"/>
<text text-anchor="start" x="263" y="-525.9" font-family="Liberation Sans" font-size="12.00" fill="#0f172a">Candidate</text>
<text text-anchor="start" x="271" y="-512.9" font-family="Liberation Sans" font-size="12.00" fill="#0f172a">AP grid</text>
<polygon fill="#fffbeb" stroke="transparent" points="328,-500.5 328,-544.5 394,-544.5 394,-500.5 328,-500.5"/>
<polygon fill="none" stroke="#fcd34d" points="328,-500.5 328,-544.5 394,-544.5 394,-500.5 328,-500.5"/>
<text text-anchor="start" x="337" y="-525.9" font-family="Liberation Sans" font-size="12.00" fill="#0f172a">Backend</text>
<text text-anchor="start" x="343" y="-512.9" font-family="Liberation Sans" font-size="12.00" fill="#0f172a">choice</text>
</g>
<!-- evaluation -->
<g id="node7" class="node">
<title>evaluation</title>
<polygon fill="#dcfce7" stroke="transparent" points="1,-419.5 1,-454.5 412,-454.5 412,-419.5 1,-419.5"/>
<polygon fill="none" stroke="#86efac" points="1,-419.5 1,-454.5 412,-454.5 412,-419.5 1,-419.5"/>
<text text-anchor="start" x="142" y="-434.5" font-family="Liberation Sans" font-weight="bold" font-size="15.00" fill="#0f172a">6. Link Evaluation</text>
<polygon fill="#f0fdf4" stroke="transparent" points="1,-388.5 1,-419.5 93,-419.5 93,-388.5 1,-388.5"/>
<polygon fill="none" stroke="#86efac" points="1,-388.5 1,-419.5 93,-419.5 93,-388.5 1,-388.5"/>
<text text-anchor="start" x="16.5" y="-401.9" font-family="Liberation Sans" font-weight="bold" font-size="12.00" fill="#0f172a">Sionna RT</text>
<polygon fill="#ffffff" stroke="transparent" points="93,-388.5 93,-419.5 175,-419.5 175,-388.5 93,-388.5"/>
<polygon fill="none" stroke="#86efac" points="93,-388.5 93,-419.5 175,-419.5 175,-388.5 93,-388.5"/>
<text text-anchor="start" x="102" y="-400.9" font-family="Liberation Sans" font-size="12.00" fill="#0f172a">Build scene</text>
<polygon fill="#ffffff" stroke="transparent" points="175,-388.5 175,-419.5 256,-419.5 256,-388.5 175,-388.5"/>
<polygon fill="none" stroke="#86efac" points="175,-388.5 175,-419.5 256,-419.5 256,-388.5 175,-388.5"/>
<text text-anchor="start" x="184" y="-400.9" font-family="Liberation Sans" font-size="12.00" fill="#0f172a">Trace paths</text>
<polygon fill="#ffffff" stroke="transparent" points="256,-388.5 256,-419.5 340,-419.5 340,-388.5 256,-388.5"/>
<polygon fill="none" stroke="#86efac" points="256,-388.5 256,-419.5 340,-419.5 340,-388.5 256,-388.5"/>
<text text-anchor="start" x="273" y="-400.9" font-family="Liberation Sans" font-size="12.00" fill="#0f172a">Path loss</text>
<polygon fill="#ffffff" stroke="transparent" points="340,-388.5 340,-419.5 412,-419.5 412,-388.5 340,-388.5"/>
<polygon fill="none" stroke="#86efac" points="340,-388.5 340,-419.5 412,-419.5 412,-388.5 340,-388.5"/>
<text text-anchor="start" x="349" y="-400.9" font-family="Liberation Sans" font-size="12.00" fill="#0f172a">RX power</text>
<polygon fill="#f0fdf4" stroke="transparent" points="1,-357.5 1,-388.5 93,-388.5 93,-357.5 1,-357.5"/>
<polygon fill="none" stroke="#86efac" points="1,-357.5 1,-388.5 93,-388.5 93,-357.5 1,-357.5"/>
<text text-anchor="start" x="10" y="-370.9" font-family="Liberation Sans" font-weight="bold" font-size="12.00" fill="#0f172a">CPU fallback</text>
<polygon fill="#ffffff" stroke="transparent" points="93,-357.5 93,-388.5 175,-388.5 175,-357.5 93,-357.5"/>
<polygon fill="none" stroke="#86efac" points="93,-357.5 93,-388.5 175,-388.5 175,-357.5 93,-357.5"/>
<text text-anchor="start" x="118.5" y="-369.9" font-family="Liberation Sans" font-size="12.00" fill="#0f172a">FSPL</text>
<polygon fill="#ffffff" stroke="transparent" points="175,-357.5 175,-388.5 256,-388.5 256,-357.5 175,-357.5"/>
<polygon fill="none" stroke="#86efac" points="175,-357.5 175,-388.5 256,-388.5 256,-357.5 175,-357.5"/>
<text text-anchor="start" x="189.5" y="-369.9" font-family="Liberation Sans" font-size="12.00" fill="#0f172a">Mesh hits</text>
<polygon fill="#ffffff" stroke="transparent" points="256,-357.5 256,-388.5 340,-388.5 340,-357.5 256,-357.5"/>
<polygon fill="none" stroke="#86efac" points="256,-357.5 256,-388.5 340,-388.5 340,-357.5 256,-357.5"/>
<text text-anchor="start" x="265" y="-369.9" font-family="Liberation Sans" font-size="12.00" fill="#0f172a">Penalty loss</text>
<polygon fill="#ffffff" stroke="transparent" points="340,-357.5 340,-388.5 412,-388.5 412,-357.5 340,-357.5"/>
<polygon fill="none" stroke="#86efac" points="340,-357.5 340,-388.5 412,-388.5 412,-357.5 340,-357.5"/>
<text text-anchor="start" x="349" y="-369.9" font-family="Liberation Sans" font-size="12.00" fill="#0f172a">RX power</text>
</g>
<!-- selection -->
<g id="node8" class="node">
<title>selection</title>
<polygon fill="#e0e7ff" stroke="transparent" points="63,-285.5 63,-320.5 350,-320.5 350,-285.5 63,-285.5"/>
<polygon fill="none" stroke="#a5b4fc" points="63,-285.5 63,-320.5 350,-320.5 350,-285.5 63,-285.5"/>
<text text-anchor="start" x="164" y="-300.5" font-family="Liberation Sans" font-weight="bold" font-size="15.00" fill="#0f172a">7. Selection</text>
<polygon fill="#ffffff" stroke="transparent" points="63,-241.5 63,-285.5 131,-285.5 131,-241.5 63,-241.5"/>
<polygon fill="none" stroke="#a5b4fc" points="63,-241.5 63,-285.5 131,-285.5 131,-241.5 63,-241.5"/>
<text text-anchor="start" x="72" y="-266.9" font-family="Liberation Sans" font-size="12.00" fill="#0f172a">Path loss</text>
<text text-anchor="start" x="80.5" y="-253.9" font-family="Liberation Sans" font-size="12.00" fill="#0f172a">matrix</text>
<polygon fill="#ffffff" stroke="transparent" points="131,-241.5 131,-285.5 201,-285.5 201,-241.5 131,-241.5"/>
<polygon fill="none" stroke="#a5b4fc" points="131,-241.5 131,-285.5 201,-285.5 201,-241.5 131,-241.5"/>
<text text-anchor="start" x="140" y="-266.9" font-family="Liberation Sans" font-size="12.00" fill="#0f172a">Worst RX</text>
<text text-anchor="start" x="147.5" y="-253.9" font-family="Liberation Sans" font-size="12.00" fill="#0f172a">per AP</text>
<polygon fill="#ffffff" stroke="transparent" points="201,-241.5 201,-285.5 274,-285.5 274,-241.5 201,-241.5"/>
<polygon fill="none" stroke="#a5b4fc" points="201,-241.5 201,-285.5 274,-285.5 274,-241.5 201,-241.5"/>
<text text-anchor="start" x="210" y="-266.9" font-family="Liberation Sans" font-size="12.00" fill="#0f172a">Mean loss</text>
<text text-anchor="start" x="215" y="-253.9" font-family="Liberation Sans" font-size="12.00" fill="#0f172a">reported</text>
<polygon fill="#eef2ff" stroke="transparent" points="274,-241.5 274,-285.5 350,-285.5 350,-241.5 274,-241.5"/>
<polygon fill="none" stroke="#a5b4fc" points="274,-241.5 274,-285.5 350,-285.5 350,-241.5 274,-241.5"/>
<text text-anchor="start" x="287.5" y="-266.9" font-family="Liberation Sans" font-size="12.00" fill="#0f172a">Minimize</text>
<text text-anchor="start" x="283" y="-253.9" font-family="Liberation Sans" font-size="12.00" fill="#0f172a">worst case</text>
</g>
<!-- best -->
<g id="node9" class="node">
<title>best</title>
<ellipse fill="#dcfce7" stroke="#16a34a" stroke-width="1.8" cx="206" cy="-160.5" rx="40.5" ry="40.5"/>
<ellipse fill="none" stroke="#16a34a" stroke-width="1.8" cx="206" cy="-160.5" rx="44.5" ry="44.5"/>
<text text-anchor="middle" x="206" y="-163.9" font-family="Liberation Sans" font-size="12.00" fill="#0f172a">Best AP</text>
<text text-anchor="middle" x="206" y="-150.9" font-family="Liberation Sans" font-size="12.00" fill="#0f172a">coordinate</text>
</g>
<!-- outputs -->
<g id="node10" class="node">
<title>outputs</title>
<polygon fill="#f3f4f6" stroke="transparent" points="50,-43.5 50,-78.5 363,-78.5 363,-43.5 50,-43.5"/>
<polygon fill="none" stroke="#d1d5db" points="50,-43.5 50,-78.5 363,-78.5 363,-43.5 50,-43.5"/>
<text text-anchor="start" x="168.5" y="-58.5" font-family="Liberation Sans" font-weight="bold" font-size="15.00" fill="#0f172a">8. Outputs</text>
<polygon fill="#ffffff" stroke="transparent" points="50,0.5 50,-43.5 103,-43.5 103,0.5 50,0.5"/>
<polygon fill="none" stroke="#d1d5db" points="50,0.5 50,-43.5 103,-43.5 103,0.5 50,0.5"/>
<text text-anchor="start" x="59" y="-24.9" font-family="Liberation Sans" font-size="12.00" fill="#0f172a">Result</text>
<text text-anchor="start" x="60" y="-11.9" font-family="Liberation Sans" font-size="12.00" fill="#0f172a">JSON</text>
<polygon fill="#ffffff" stroke="transparent" points="103,0.5 103,-43.5 160,-43.5 160,0.5 103,0.5"/>
<polygon fill="none" stroke="#d1d5db" points="103,0.5 103,-43.5 160,-43.5 160,0.5 103,0.5"/>
<text text-anchor="start" x="112" y="-24.9" font-family="Liberation Sans" font-size="12.00" fill="#0f172a">Metrics</text>
<text text-anchor="start" x="118.5" y="-11.9" font-family="Liberation Sans" font-size="12.00" fill="#0f172a">CSV</text>
<polygon fill="#ffffff" stroke="transparent" points="160,0.5 160,-43.5 225,-43.5 225,0.5 160,0.5"/>
<polygon fill="none" stroke="#d1d5db" points="160,0.5 160,-43.5 225,-43.5 225,0.5 160,0.5"/>
<text text-anchor="start" x="179.5" y="-24.9" font-family="Liberation Sans" font-size="12.00" fill="#0f172a">Loss</text>
<text text-anchor="start" x="169" y="-11.9" font-family="Liberation Sans" font-size="12.00" fill="#0f172a">heatmap</text>
<polygon fill="#ffffff" stroke="transparent" points="225,0.5 225,-43.5 296,-43.5 296,0.5 225,0.5"/>
<polygon fill="none" stroke="#d1d5db" points="225,0.5 225,-43.5 296,-43.5 296,0.5 225,0.5"/>
<text text-anchor="start" x="234" y="-24.9" font-family="Liberation Sans" font-size="12.00" fill="#0f172a">Top&#45;down</text>
<text text-anchor="start" x="244" y="-11.9" font-family="Liberation Sans" font-size="12.00" fill="#0f172a">layout</text>
<polygon fill="#ffffff" stroke="transparent" points="296,0.5 296,-43.5 363,-43.5 363,0.5 296,0.5"/>
<polygon fill="none" stroke="#d1d5db" points="296,0.5 296,-43.5 363,-43.5 363,0.5 296,0.5"/>
<text text-anchor="start" x="306.5" y="-24.9" font-family="Liberation Sans" font-size="12.00" fill="#0f172a">Console</text>
<text text-anchor="start" x="305" y="-11.9" font-family="Liberation Sans" font-size="12.00" fill="#0f172a">summary</text>
</g>
</g>
</svg>
